<svg version="1.1" baseProfile="tiny" xmlns="http://www.w3.org/2000/svg" xmlns:xlink="http://www.w3.org/1999/xlink" x="0px"
	 y="0px" viewBox="0 0 379.7 363" overflow="scroll" xml:space="preserve">
<g>
	<path fill="#FFFFFF" d="M51.1,133.2c4.3,2.2,95.4,21.4,105,13.7c14.4-11.5,26.6-104.3,27.3-110.1s6.5-8.4,12.9-8.4
		c6.5,0,11.5,7.7,12.2,16.3s1.2,87.7,11.5,98.6c13.7,14.4,100.7-6.5,109.4-8.6c8.6-2.2,12.2,3.6,15.3,7.9s0,11.5-6.6,14.4
		c-6.6,2.9-87.8,31.7-91.4,51.1s44.6,96.4,48.9,102.2c4.3,5.8,3.6,12.2,0,15.9c-3.6,3.6-10.8,3.6-19.4-3.6s-70.5-69.1-86.7-70.5
		c-16.2-1.4-78.1,64-83.1,69.1c-5,5-15.1,6.5-19.4,3.6c-4.3-2.9-3.6-10.1-0.7-18.7c2.9-8.6,45.3-82,45.3-97.1
		c0-15.1-84.2-49.6-84.2-49.6s-13.1-5-13.1-16.5S46.8,131,51.1,133.2z M155.7,172.5c-4.7,0-8.5,3.8-8.5,8.5c0,4.7,3.8,8.5,8.5,8.5
		c4.7,0,8.5-3.8,8.5-8.5C164.2,176.3,160.4,172.5,155.7,172.5z M134.7,167c-3.9,0-7,3.1-7,7s3.1,7,7,7c3.9,0,7-3.1,7-7
		S138.5,167,134.7,167z M115,161.5c-3,0-5.5,2.5-5.5,5.5c0,3,2.5,5.5,5.5,5.5s5.5-2.5,5.5-5.5C120.5,164,118,161.5,115,161.5z
		 M96.3,156.2c-2.9,0-5.3,2.4-5.3,5.3c0,2.9,2.4,5.3,5.3,5.3s5.3-2.4,5.3-5.3C101.7,158.5,99.3,156.2,96.3,156.2z M79.2,151.9
		c-2.8,0-5,2.2-5,5c0,2.8,2.2,5,5,5c2.8,0,5-2.2,5-5C84.2,154.2,82,151.9,79.2,151.9z M63.3,146.2c-2.6,0-4.7,2.1-4.7,4.7
		c0,2.6,2.1,4.7,4.7,4.7s4.7-2.1,4.7-4.7C68,148.2,65.9,146.2,63.3,146.2z M49.3,140.8c-2.4,0-4.3,1.9-4.3,4.3s1.9,4.3,4.3,4.3
		s4.3-1.9,4.3-4.3S51.7,140.8,49.3,140.8z M158.3,223.4c-1.6,4.4,0.7,9.3,5.1,10.9c4.4,1.6,9.3-0.7,10.9-5.1
		c1.6-4.4-0.7-9.3-5.1-10.9C164.8,216.7,159.9,219,158.3,223.4z M145.9,241.2c-1.3,3.6,0.5,7.7,4.2,9c3.6,1.3,7.7-0.5,9-4.2
		c1.3-3.6-0.5-7.7-4.2-9C151.3,235.7,147.3,237.6,145.9,241.2z M134,257.8c-1,2.9,0.4,6,3.3,7.1c2.9,1,6-0.4,7.1-3.3s-0.4-6-3.3-7.1
		C138.2,253.5,135.1,254.9,134,257.8z M122.6,273.5c-1,2.8,0.4,5.8,3.2,6.8c2.8,1,5.8-0.4,6.8-3.2s-0.4-5.8-3.2-6.8
		C126.7,269.3,123.6,270.7,122.6,273.5z M112.8,288.1c-0.9,2.6,0.4,5.5,3,6.4s5.5-0.4,6.4-3c0.9-2.6-0.4-5.5-3-6.4
		C116.6,284.2,113.7,285.5,112.8,288.1z M101.9,301.1c-0.9,2.4,0.4,5.1,2.8,6s5.1-0.4,6-2.8c0.9-2.4-0.4-5.1-2.8-6
		C105.4,297.4,102.8,298.6,101.9,301.1z M92.1,312.4c-0.8,2.2,0.3,4.7,2.6,5.6c2.2,0.8,4.7-0.3,5.6-2.6c0.8-2.2-0.3-4.7-2.6-5.6
		C95.4,309,92.9,310.1,92.1,312.4z M211.5,235.1c3.9,2.6,9.2,1.5,11.8-2.5c2.6-3.9,1.5-9.2-2.5-11.8c-3.9-2.6-9.2-1.5-11.8,2.5
		C206.4,227.2,207.5,232.5,211.5,235.1z M226,251.2c3.2,2.1,7.6,1.2,9.7-2c2.1-3.2,1.2-7.6-2-9.7c-3.2-2.1-7.6-1.2-9.7,2
		C221.9,244.7,222.8,249,226,251.2z M239.5,266.5c2.5,1.7,6,0.9,7.6-1.6s0.9-6-1.6-7.6c-2.5-1.7-6-0.9-7.6,1.6
		S236.9,264.9,239.5,266.5z M252.2,281.2c2.5,1.6,5.8,0.9,7.4-1.5c1.6-2.5,0.9-5.8-1.5-7.4c-2.5-1.6-5.8-0.9-7.4,1.5
		C249,276.3,249.7,279.6,252.2,281.2z M264.2,294.1c2.3,1.5,5.4,0.9,6.9-1.5c1.5-2.3,0.9-5.4-1.5-6.9c-2.3-1.5-5.4-0.9-6.9,1.5
		C261.3,289.5,261.9,292.6,264.2,294.1z M274.4,307.6c2.2,1.4,5,0.8,6.5-1.4c1.4-2.2,0.8-5-1.4-6.5c-2.2-1.4-5-0.8-6.5,1.4
		C271.6,303.3,272.2,306.2,274.4,307.6z M283.2,319.7c2,1.3,4.7,0.7,6-1.3c1.3-2,0.7-4.7-1.3-6c-2-1.3-4.7-0.7-6,1.3
		S281.2,318.4,283.2,319.7z M229.4,185.8c3.8-2.7,4.8-8,2.1-11.8c-2.7-3.8-8-4.8-11.8-2.1c-3.8,2.7-4.8,8-2.1,11.8
		C220.3,187.6,225.6,188.5,229.4,185.8z M249.8,178.2c3.2-2.2,3.9-6.6,1.7-9.8c-2.2-3.2-6.6-3.9-9.8-1.7s-3.9,6.6-1.7,9.8
		C242.2,179.7,246.6,180.4,249.8,178.2z M269,171.4c2.5-1.8,3.1-5.2,1.3-7.7c-1.8-2.5-5.2-3.1-7.7-1.3c-2.5,1.8-3.1,5.2-1.3,7.7
		C263.1,172.5,266.5,173.1,269,171.4z M287.4,165c2.4-1.7,3-5,1.3-7.4c-1.7-2.4-5-3-7.4-1.3c-2.4,1.7-3,5-1.3,7.4
		C281.6,166.1,284.9,166.7,287.4,165z M303.8,158.6c2.3-1.6,2.8-4.7,1.2-7c-1.6-2.3-4.7-2.8-7-1.2c-2.3,1.6-2.8,4.7-1.2,7
		S301.5,160.2,303.8,158.6z M320.1,154.2c2.1-1.5,2.6-4.4,1.1-6.5s-4.4-2.6-6.5-1.1c-2.1,1.5-2.6,4.4-1.1,6.5S318,155.7,320.1,154.2
		z M334.6,150.5c2-1.4,2.4-4.1,1.1-6c-1.4-2-4.1-2.4-6-1.1s-2.4,4.1-1.1,6C330,151.4,332.7,151.9,334.6,150.5z M198,154.2
		c-1.3-4.5-6-7.1-10.5-5.9s-7.1,6-5.9,10.5c1.3,4.5,6,7.1,10.5,5.9S199.2,158.7,198,154.2z M197.6,132.5c-1-3.7-4.9-5.9-8.6-4.8
		c-3.7,1-5.9,4.9-4.8,8.6c1,3.7,4.9,5.9,8.6,4.8S198.6,136.2,197.6,132.5z M197.6,112.1c-0.8-2.9-3.9-4.6-6.8-3.8s-4.6,3.9-3.8,6.8
		s3.9,4.6,6.8,3.8C196.7,118,198.4,115,197.6,112.1z M197.6,92.7c-0.8-2.8-3.7-4.5-6.6-3.7c-2.8,0.8-4.5,3.7-3.7,6.6
		c0.8,2.8,3.7,4.5,6.6,3.7C196.8,98.4,198.4,95.5,197.6,92.7z M197.1,75c-0.7-2.7-3.5-4.2-6.2-3.5c-2.7,0.7-4.2,3.5-3.5,6.2
		c0.7,2.7,3.5,4.2,6.2,3.5C196.3,80.5,197.8,77.7,197.1,75z M198.3,58.2c-0.7-2.5-3.3-3.9-5.8-3.2c-2.5,0.7-3.9,3.3-3.2,5.8
		c0.7,2.5,3.3,3.9,5.8,3.2S199,60.7,198.3,58.2z M199.7,43.3c-0.6-2.3-3-3.6-5.3-3s-3.6,3-3,5.3s3,3.6,5.3,3S200.3,45.6,199.7,43.3z
		"/>
</g>
</svg>
